<svg xmlns="http://www.w3.org/2000/svg" viewBox="0 0 960 80" shape-rendering="crispEdges"><g transform="translate(0 0)"><rect x="0" y="0" width="160" height="80" fill="#a9dfef"/><rect x="12" y="14" width="38" height="8" fill="#f6fcf4"/><rect x="20" y="8" width="22" height="6" fill="#f6fcf4"/><rect x="126" y="12" width="12" height="12" fill="#ffcc57"/><rect x="0" y="46" width="160" height="34" fill="#48aec8"/><rect x="18" y="56" width="25" height="2" fill="#98e4e2"/><rect x="92" y="60" width="35" height="2" fill="#98e4e2"/><rect x="0" y="70" width="160" height="10" fill="#f6d792"/><rect x="14" y="39" width="36" height="31" fill="#fffbea"/><rect x="11" y="33" width="42" height="8" fill="#e77455"/><rect x="14" y="33" width="7" height="8" fill="#ffcc57"/><rect x="28" y="33" width="7" height="8" fill="#ffcc57"/><rect x="42" y="33" width="7" height="8" fill="#ffcc57"/><rect x="19" y="49" width="10" height="21" fill="#172b48"/><rect x="35" y="49" width="10" height="10" fill="#48aec8"/><rect x="60" y="39" width="36" height="31" fill="#fffbea"/><rect x="57" y="33" width="42" height="8" fill="#e77455"/><rect x="60" y="33" width="7" height="8" fill="#ffcc57"/><rect x="74" y="33" width="7" height="8" fill="#ffcc57"/><rect x="88" y="33" width="7" height="8" fill="#ffcc57"/><rect x="65" y="49" width="10" height="21" fill="#172b48"/><rect x="81" y="49" width="10" height="10" fill="#48aec8"/><rect x="106" y="39" width="36" height="31" fill="#fffbea"/><rect x="103" y="33" width="42" height="8" fill="#e77455"/><rect x="106" y="33" width="7" height="8" fill="#ffcc57"/><rect x="120" y="33" width="7" height="8" fill="#ffcc57"/><rect x="134" y="33" width="7" height="8" fill="#ffcc57"/><rect x="111" y="49" width="10" height="21" fill="#172b48"/><rect x="127" y="49" width="10" height="10" fill="#48aec8"/></g><g transform="translate(160 0)"><rect x="0" y="0" width="160" height="80" fill="#a9dfef"/><rect x="12" y="14" width="38" height="8" fill="#f6fcf4"/><rect x="20" y="8" width="22" height="6" fill="#f6fcf4"/><rect x="126" y="12" width="12" height="12" fill="#ffcc57"/><rect x="0" y="59" width="160" height="21" fill="#a7c884"/><path d="M5 59V49h14V40h20v-9h19v12h22v16zm96 0V39h15V27h17v18h20v14z" fill="#6db9a3"/><rect x="48" y="39" width="64" height="29" fill="#fffbea"/><rect x="54" y="39" width="5" height="29" fill="#926544"/><rect x="101" y="39" width="5" height="29" fill="#926544"/><rect x="71" y="49" width="17" height="19" fill="#172b48"/><path d="M40 39v-6h12v-6h12v-7h32v7h12v6h12v6z" fill="#172b48"/><rect x="42" y="39" width="76" height="4" fill="#e77455"/></g><g transform="translate(320 0)"><rect x="0" y="0" width="160" height="80" fill="#a9dfef"/><rect x="12" y="14" width="38" height="8" fill="#f6fcf4"/><rect x="20" y="8" width="22" height="6" fill="#f6fcf4"/><rect x="126" y="12" width="12" height="12" fill="#ffcc57"/><rect x="0" y="59" width="160" height="21" fill="#a7c884"/><rect x="10" y="44" width="40" height="25" fill="#fffbea"/><rect x="26" y="54" width="9" height="15" fill="#926544"/><path d="M10 44h-6v-5h10v-6h10v-5h12v5h10v6h10v5z" fill="#172b48"/><rect x="60" y="36" width="40" height="25" fill="#fffbea"/><rect x="76" y="46" width="9" height="15" fill="#926544"/><path d="M60 36h-6v-5h10v-6h10v-5h12v5h10v6h10v5z" fill="#172b48"/><rect x="110" y="44" width="40" height="25" fill="#fffbea"/><rect x="126" y="54" width="9" height="15" fill="#926544"/><path d="M110 44h-6v-5h10v-6h10v-5h12v5h10v6h10v5z" fill="#172b48"/></g><g transform="translate(480 0)"><rect x="0" y="0" width="160" height="80" fill="#a9dfef"/><rect x="12" y="14" width="38" height="8" fill="#f6fcf4"/><rect x="20" y="8" width="22" height="6" fill="#f6fcf4"/><rect x="126" y="12" width="12" height="12" fill="#ffcc57"/><rect x="0" y="46" width="160" height="34" fill="#48aec8"/><rect x="18" y="56" width="25" height="2" fill="#98e4e2"/><rect x="92" y="60" width="35" height="2" fill="#98e4e2"/><rect x="0" y="70" width="160" height="10" fill="#f6d792"/><rect x="12" y="28" width="12" height="18" fill="#638caa"/><rect x="30" y="18" width="12" height="28" fill="#638caa"/><rect x="49" y="26" width="12" height="20" fill="#638caa"/><rect x="119" y="20" width="12" height="26" fill="#638caa"/><rect x="138" y="28" width="12" height="18" fill="#638caa"/><rect x="0" y="40" width="160" height="3" fill="#172b48"/><rect x="23" y="23" width="4" height="26" fill="#172b48"/><rect x="132" y="23" width="4" height="26" fill="#172b48"/><rect x="25" y="29" width="110" height="2" fill="#fffbea"/><rect x="76" y="56" width="3" height="14" fill="#172b48"/><rect x="60" y="54" width="35" height="4" fill="#e77455"/><rect x="66" y="49" width="23" height="5" fill="#ffcc57"/></g><g transform="translate(640 0)"><rect x="0" y="0" width="160" height="80" fill="#a9dfef"/><rect x="12" y="14" width="38" height="8" fill="#f6fcf4"/><rect x="20" y="8" width="22" height="6" fill="#f6fcf4"/><rect x="126" y="12" width="12" height="12" fill="#ffcc57"/><rect x="0" y="46" width="160" height="34" fill="#48aec8"/><rect x="18" y="56" width="25" height="2" fill="#98e4e2"/><rect x="92" y="60" width="35" height="2" fill="#98e4e2"/><rect x="0" y="70" width="160" height="10" fill="#f6d792"/><path d="M20 58V51h15v-9h17v-10h19v-9h22v10h20v10h18v9h10v6z" fill="#429b79"/><rect x="75" y="23" width="10" height="5" fill="#172b48"/><rect x="126" y="77" width="6" height="8" fill="#926544"/><rect x="128" y="70" width="6" height="8" fill="#926544"/><rect x="130" y="63" width="6" height="8" fill="#926544"/><rect x="132" y="56" width="6" height="8" fill="#926544"/><rect x="134" y="49" width="6" height="8" fill="#926544"/><rect x="102" y="42" width="24" height="6" fill="#429b79"/><rect x="108" y="36" width="20" height="6" fill="#429b79"/><rect x="130" y="36" width="23" height="6" fill="#429b79"/><rect x="138" y="42" width="22" height="6" fill="#429b79"/><rect x="96" y="48" width="10" height="8" fill="#429b79"/><rect x="153" y="48" width="10" height="8" fill="#429b79"/></g><g transform="translate(800 0)"><rect x="0" y="0" width="160" height="80" fill="#a9dfef"/><rect x="12" y="14" width="38" height="8" fill="#f6fcf4"/><rect x="20" y="8" width="22" height="6" fill="#f6fcf4"/><rect x="126" y="12" width="12" height="12" fill="#ffcc57"/><rect x="0" y="46" width="160" height="34" fill="#48aec8"/><rect x="18" y="56" width="25" height="2" fill="#98e4e2"/><rect x="92" y="60" width="35" height="2" fill="#98e4e2"/><rect x="0" y="70" width="160" height="10" fill="#f6d792"/><rect x="24" y="40" width="42" height="30" fill="#fffbea"/><rect x="19" y="34" width="52" height="7" fill="#172b48"/><rect x="29" y="49" width="13" height="16" fill="#926544"/><rect x="48" y="48" width="12" height="10" fill="#48aec8"/><rect x="84" y="50" width="30" height="15" fill="#fffbea"/><rect x="84" y="50" width="30" height="5" fill="#926544"/><rect x="114" y="53" width="5" height="9" fill="#926544"/><rect x="90" y="44" width="3" height="4" fill="#fffbea"/><rect x="100" y="42" width="3" height="6" fill="#fffbea"/></g></svg>